<svg xmlns="http://www.w3.org/2000/svg" width="329.9135437011719" height="270.9388732910156" viewBox="-12.898134231567383 -14.758453369140625 329.9135437011719 270.9388732910156"><title>Neo4j Graph Visualization</title><desc>Created using Neo4j (http://www.neo4j.com/)</desc><g class="layer relationships"><g class="relationship" transform="translate(235.55968718613587 219.68041527880305) rotate(180.2082706300223)"><path class="outline" fill="#A5ABB6" stroke="none" d="M 31.26317983184346,-8.894581878976458 L 31.52199887694598,-7.92865605268739 A 212.93362130275693 212.93362130275693 0 0 1 62.073029418682374,-13.76303351735433 L 61.95768715453545,-14.756359325989877 A 213.93362130275693 213.93362130275693 0 0 0 31.26317983184346,-8.894581878976458 Z M 107.0942020852545,-15.203488821033943 L 106.99856061222229,-14.20807297394478 A 212.93362130275693 212.93362130275693 0 0 1 137.65917687547756,-8.980067817125281 L 136.94027817149816,-6.067477105504997 L 144.57503831992145,-7.788069293110079 L 138.6177084807834,-12.863522099285658 L 137.898809776804,-9.950931387665374 A 213.93362130275693 213.93362130275693 0 0 0 107.0942020852545,-15.203488821033943"/><text text-anchor="middle" pointer-events="none" font-size="8px" fill="#000000" x="84.51907175035139" y="-12.673721691895139" transform="rotate(180 84.51907175035139 -15.673721691895139)" font-family="sans-serif">FOLLOWS</text></g><g class="relationship" transform="translate(59.43274643778447 219.0401895799874) rotate(360.2082706300223)"><path class="outline" fill="#A5ABB6" stroke="none" d="M 31.26317983184346,-8.894581878976458 L 31.52199887694598,-7.92865605268739 A 212.93362130275693 212.93362130275693 0 0 1 62.073029418682374,-13.76303351735433 L 61.95768715453545,-14.756359325989877 A 213.93362130275693 213.93362130275693 0 0 0 31.26317983184346,-8.894581878976458 Z M 107.0942020852545,-15.203488821033943 L 106.99856061222229,-14.20807297394478 A 212.93362130275693 212.93362130275693 0 0 1 137.65917687547756,-8.980067817125281 L 136.94027817149816,-6.067477105504997 L 144.57503831992145,-7.788069293110079 L 138.6177084807834,-12.863522099285658 L 137.898809776804,-9.950931387665374 A 213.93362130275693 213.93362130275693 0 0 0 107.0942020852545,-15.203488821033943"/><text text-anchor="middle" pointer-events="none" font-size="8px" fill="#000000" x="84.51907175035139" y="-12.673721691895139" font-family="sans-serif">FOLLOWS</text></g><g class="relationship" transform="translate(141.96819026524378 125.51579675181704) rotate(405.1748936225599)"><path class="outline" fill="#A5ABB6" stroke="none" d="M 32.5 0.5 L 38.77079235601913 0.5 L 38.77079235601913 -0.5 L 32.5 -0.5 Z M 86.99344860601913 0.5 L 93.26424096203826 0.5 L 93.26424096203826 3.5 L 100.26424096203826 0 L 93.26424096203826 -3.5 L 93.26424096203826 -0.5 L 86.99344860601913 -0.5 Z"/><text text-anchor="middle" pointer-events="none" font-size="8px" fill="#000000" x="62.88212048101913" y="3" font-family="sans-serif">MENTIONS</text></g><g class="relationship" transform="translate(59.43274643778447 219.0401895799874) rotate(311.42846034034943)"><path class="outline" fill="#A5ABB6" stroke="none" d="M 32.5 0.5 L 42.309089271083955 0.5 L 42.309089271083955 -0.5 L 32.5 -0.5 Z M 75.42627677108396 0.5 L 85.23536604216791 0.5 L 85.23536604216791 3.5 L 92.23536604216791 0 L 85.23536604216791 -3.5 L 85.23536604216791 -0.5 L 75.42627677108396 -0.5 Z"/><text text-anchor="middle" pointer-events="none" font-size="8px" fill="#000000" x="58.867683021083955" y="3" font-family="sans-serif">POSTS</text></g><g class="relationship" transform="translate(141.96819026524378 125.51579675181704) rotate(300.49580751333815)"><path class="outline" fill="#A5ABB6" stroke="none" d="M 32.5 0.5 L 49.15125660689489 0.5 L 49.15125660689489 -0.5 L 32.5 -0.5 Z M 80.48719410689489 0.5 L 97.13845071378978 0.5 L 97.13845071378978 3.5 L 104.13845071378978 0 L 97.13845071378978 -3.5 L 97.13845071378978 -0.5 L 80.48719410689489 -0.5 Z"/><text text-anchor="middle" pointer-events="none" font-size="8px" fill="#000000" x="64.81922535689489" y="3" font-family="sans-serif">USING</text></g><g class="relationship" transform="translate(141.96819026524378 125.51579675181704) rotate(180.51776240927398)"><path class="outline" fill="#A5ABB6" stroke="none" d="M 32.5 0.5 L 49.5900287958177 0.5 L 49.5900287958177 -0.5 L 32.5 -0.5 Z M 76.7814350458177 0.5 L 93.8714638416354 0.5 L 93.8714638416354 3.5 L 100.8714638416354 0 L 93.8714638416354 -3.5 L 93.8714638416354 -0.5 L 76.7814350458177 -0.5 Z"/><text text-anchor="middle" pointer-events="none" font-size="8px" fill="#000000" x="63.1857319208177" y="3" transform="rotate(180 63.1857319208177 0)" font-family="sans-serif">TAGS</text></g><g class="relationship" transform="translate(141.96819026524378 125.51579675181704) rotate(231.74543118920002)"><path class="outline" fill="#A5ABB6" stroke="none" d="M 32.5 0.5 L 47.18957685689668 0.5 L 47.18957685689668 -0.5 L 32.5 -0.5 Z M 93.93567060689668 0.5 L 108.62524746379336 0.5 L 108.62524746379336 3.5 L 115.62524746379336 0 L 108.62524746379336 -3.5 L 108.62524746379336 -0.5 L 93.93567060689668 -0.5 Z"/><text text-anchor="middle" pointer-events="none" font-size="8px" fill="#000000" x="70.56262373189668" y="3" transform="rotate(180 70.56262373189668 0)" font-family="sans-serif">CONTAINS</text></g><g class="relationship" transform="translate(141.96819026524378 125.51579675181704) rotate(360.34445872669517)"><path class="outline" fill="#A5ABB6" stroke="none" d="M 32.5 0.5 L 40.552205875657506 0.5 L 40.552205875657506 -0.5 L 32.5 -0.5 Z M 90.9975183756575 0.5 L 99.04972425131501 0.5 L 99.04972425131501 3.5 L 106.04972425131501 0 L 99.04972425131501 -3.5 L 99.04972425131501 -0.5 L 90.9975183756575 -0.5 Z"/><text text-anchor="middle" pointer-events="none" font-size="8px" fill="#000000" x="65.7748621256575" y="3" font-family="sans-serif">RETWEETS</text></g></g><g class="layer nodes"><g class="node" transform="translate(235.55968718613587,219.68041527880305)"><circle class="outline" cx="0" cy="0" r="32.5" fill="#DE9BF9" stroke="#BF85D6" stroke-width="2px"/><text text-anchor="middle" pointer-events="none" y="5" font-size="10px" fill="#FFFFFF" font-family="sans-serif"> User</text></g><g class="node" transform="translate(141.96819026524378,125.51579675181704)"><circle class="outline" cx="0" cy="0" r="32.5" fill="#FF756E" stroke="#E06760" stroke-width="2px"/><text text-anchor="middle" pointer-events="none" y="5" font-size="10px" fill="#FFFFFF" font-family="sans-serif"> Tweet</text></g><g class="node" transform="translate(207.50276607433773,14.241546243085104)"><circle class="outline" cx="0" cy="0" r="25" fill="#6DCE9E" stroke="#60B58B" stroke-width="2px"/><text text-anchor="middle" pointer-events="none" y="5" font-size="10px" fill="#FFFFFF" font-family="sans-serif"> Source</text></g><g class="node" transform="translate(54.89914451179809,15.087351612724806)"><circle class="outline" cx="0" cy="0" r="25" fill="#68BDF6" stroke="#5CA8DB" stroke-width="2px"/><text text-anchor="middle" pointer-events="none" y="5" font-size="10px" fill="#FFFFFF" font-family="sans-serif"> Link</text></g><g class="node" transform="translate(16.101865796151348,124.37835476328647)"><circle class="outline" cx="0" cy="0" r="25" fill="#FFD86E" stroke="#EDBA39" stroke-width="2px"/><text text-anchor="middle" pointer-events="none" y="5" font-size="10px" fill="#604A0E" font-family="sans-serif"> Hashtag</text></g><g class="node" transform="translate(59.43274643778447,219.0401895799874)"><circle class="outline" cx="0" cy="0" r="32.5" fill="#DE9BF9" stroke="#BF85D6" stroke-width="2px"/><text text-anchor="middle" pointer-events="none" y="5" font-size="10px" fill="#FFFFFF" font-family="sans-serif"> User</text></g><g class="node" transform="translate(280.51541069438656,126.34874421351489)"><circle class="outline" cx="0" cy="0" r="32.5" fill="#FF756E" stroke="#E06760" stroke-width="2px"/><text text-anchor="middle" pointer-events="none" y="5" font-size="10px" fill="#FFFFFF" font-family="sans-serif"> Tweet</text></g></g></svg>
